<mxfile host="app.diagrams.net" agent="Mozilla/5.0 (Windows NT 10.0; Win64; x64) AppleWebKit/537.36 (KHTML, like Gecko) Chrome/129.0.0.0 Safari/537.36" version="24.7.17">
  <diagram name="Page-1" id="TjrKQG86go2EHlcvoJwK">
    <mxGraphModel dx="1668" dy="964" grid="1" gridSize="10" guides="1" tooltips="1" connect="1" arrows="1" fold="1" page="1" pageScale="1" pageWidth="850" pageHeight="1100" math="0" shadow="0">
      <root>
        <mxCell id="0" />
        <mxCell id="1" parent="0" />
        <mxCell id="0HpRwzNJ2paTtuiWjX7O-2" value="&lt;div&gt;&lt;br&gt;&lt;/div&gt;" style="shape=datastore;whiteSpace=wrap;html=1;" vertex="1" parent="1">
          <mxGeometry x="100" y="620" width="405" height="500" as="geometry" />
        </mxCell>
        <mxCell id="0HpRwzNJ2paTtuiWjX7O-5" value="Home" style="swimlane;whiteSpace=wrap;html=1;" vertex="1" parent="1">
          <mxGeometry x="50" y="140" width="240" height="340" as="geometry" />
        </mxCell>
        <mxCell id="0HpRwzNJ2paTtuiWjX7O-7" value="" style="labelPosition=right;align=left;strokeWidth=1;shape=mxgraph.mockup.markup.curlyBrace;html=1;shadow=0;dashed=0;strokeColor=#999999;direction=north;" vertex="1" parent="0HpRwzNJ2paTtuiWjX7O-5">
          <mxGeometry x="10" y="70" width="20" height="100" as="geometry" />
        </mxCell>
        <mxCell id="0HpRwzNJ2paTtuiWjX7O-8" value="" style="labelPosition=right;align=left;strokeWidth=1;shape=mxgraph.mockup.markup.curlyBrace;html=1;shadow=0;dashed=0;strokeColor=#999999;direction=north;rotation=-180;" vertex="1" parent="0HpRwzNJ2paTtuiWjX7O-5">
          <mxGeometry x="150" y="70" width="20" height="100" as="geometry" />
        </mxCell>
        <mxCell id="0HpRwzNJ2paTtuiWjX7O-9" value="modifiedData" style="text;html=1;align=center;verticalAlign=middle;resizable=0;points=[];autosize=1;strokeColor=none;fillColor=none;strokeWidth=7;fontSize=20;" vertex="1" parent="0HpRwzNJ2paTtuiWjX7O-5">
          <mxGeometry x="20" y="100" width="140" height="40" as="geometry" />
        </mxCell>
        <mxCell id="0HpRwzNJ2paTtuiWjX7O-11" value="" style="labelPosition=right;align=left;strokeWidth=1;shape=mxgraph.mockup.markup.curlyBrace;html=1;shadow=0;dashed=0;strokeColor=#999999;direction=north;" vertex="1" parent="0HpRwzNJ2paTtuiWjX7O-5">
          <mxGeometry x="70" y="200" width="20" height="100" as="geometry" />
        </mxCell>
        <mxCell id="0HpRwzNJ2paTtuiWjX7O-12" value="" style="labelPosition=right;align=left;strokeWidth=1;shape=mxgraph.mockup.markup.curlyBrace;html=1;shadow=0;dashed=0;strokeColor=#999999;direction=north;rotation=-180;" vertex="1" parent="0HpRwzNJ2paTtuiWjX7O-5">
          <mxGeometry x="210" y="200" width="20" height="100" as="geometry" />
        </mxCell>
        <mxCell id="0HpRwzNJ2paTtuiWjX7O-13" value="modifiedData" style="text;html=1;align=center;verticalAlign=middle;resizable=0;points=[];autosize=1;strokeColor=none;fillColor=none;strokeWidth=7;fontSize=20;" vertex="1" parent="0HpRwzNJ2paTtuiWjX7O-5">
          <mxGeometry x="80" y="230" width="140" height="40" as="geometry" />
        </mxCell>
        <mxCell id="0HpRwzNJ2paTtuiWjX7O-14" value="Logo" style="rounded=1;whiteSpace=wrap;html=1;" vertex="1" parent="0HpRwzNJ2paTtuiWjX7O-5">
          <mxGeometry x="10" y="30" width="40" height="20" as="geometry" />
        </mxCell>
        <mxCell id="0HpRwzNJ2paTtuiWjX7O-19" value=".replace" style="shape=process;whiteSpace=wrap;html=1;backgroundOutline=1;" vertex="1" parent="1">
          <mxGeometry x="340" y="450" width="160" height="80" as="geometry" />
        </mxCell>
        <mxCell id="0HpRwzNJ2paTtuiWjX7O-22" style="edgeStyle=orthogonalEdgeStyle;rounded=0;orthogonalLoop=1;jettySize=auto;html=1;entryX=0.48;entryY=0.025;entryDx=0;entryDy=0;entryPerimeter=0;" edge="1" parent="1" source="0HpRwzNJ2paTtuiWjX7O-19" target="0HpRwzNJ2paTtuiWjX7O-11">
          <mxGeometry relative="1" as="geometry" />
        </mxCell>
        <mxCell id="0HpRwzNJ2paTtuiWjX7O-23" style="edgeStyle=orthogonalEdgeStyle;rounded=0;orthogonalLoop=1;jettySize=auto;html=1;entryX=0.497;entryY=0.025;entryDx=0;entryDy=0;entryPerimeter=0;exitX=0;exitY=0.5;exitDx=0;exitDy=0;" edge="1" parent="1" source="0HpRwzNJ2paTtuiWjX7O-19" target="0HpRwzNJ2paTtuiWjX7O-7">
          <mxGeometry relative="1" as="geometry">
            <Array as="points">
              <mxPoint x="30" y="490" />
              <mxPoint x="30" y="260" />
            </Array>
          </mxGeometry>
        </mxCell>
        <mxCell id="0HpRwzNJ2paTtuiWjX7O-137" style="edgeStyle=orthogonalEdgeStyle;rounded=0;orthogonalLoop=1;jettySize=auto;html=1;entryX=0.5;entryY=0;entryDx=0;entryDy=0;" edge="1" parent="1" source="0HpRwzNJ2paTtuiWjX7O-25" target="0HpRwzNJ2paTtuiWjX7O-120">
          <mxGeometry relative="1" as="geometry" />
        </mxCell>
        <mxCell id="0HpRwzNJ2paTtuiWjX7O-25" value="Select Page" style="swimlane;whiteSpace=wrap;html=1;" vertex="1" parent="1">
          <mxGeometry x="570" y="90" width="240" height="340" as="geometry" />
        </mxCell>
        <mxCell id="0HpRwzNJ2paTtuiWjX7O-45" value="Home" style="swimlane;fontStyle=0;childLayout=stackLayout;horizontal=1;startSize=30;horizontalStack=0;resizeParent=1;resizeParentMax=0;resizeLast=0;collapsible=1;marginBottom=0;whiteSpace=wrap;html=1;" vertex="1" parent="0HpRwzNJ2paTtuiWjX7O-25">
          <mxGeometry x="10" y="30" width="100" height="50" as="geometry" />
        </mxCell>
        <mxCell id="0HpRwzNJ2paTtuiWjX7O-54" value="Drop Auction" style="swimlane;fontStyle=0;childLayout=stackLayout;horizontal=1;startSize=30;horizontalStack=0;resizeParent=1;resizeParentMax=0;resizeLast=0;collapsible=1;marginBottom=0;whiteSpace=wrap;html=1;" vertex="1" parent="0HpRwzNJ2paTtuiWjX7O-25">
          <mxGeometry x="130" y="30" width="100" height="60" as="geometry" />
        </mxCell>
        <mxCell id="0HpRwzNJ2paTtuiWjX7O-58" value="Retailers" style="swimlane;fontStyle=0;childLayout=stackLayout;horizontal=1;startSize=30;horizontalStack=0;resizeParent=1;resizeParentMax=0;resizeLast=0;collapsible=1;marginBottom=0;whiteSpace=wrap;html=1;" vertex="1" parent="0HpRwzNJ2paTtuiWjX7O-25">
          <mxGeometry x="10" y="150" width="100" height="50" as="geometry" />
        </mxCell>
        <mxCell id="0HpRwzNJ2paTtuiWjX7O-62" value="Contact" style="swimlane;fontStyle=0;childLayout=stackLayout;horizontal=1;startSize=30;horizontalStack=0;resizeParent=1;resizeParentMax=0;resizeLast=0;collapsible=1;marginBottom=0;whiteSpace=wrap;html=1;" vertex="1" parent="0HpRwzNJ2paTtuiWjX7O-25">
          <mxGeometry x="130" y="150" width="100" height="50" as="geometry" />
        </mxCell>
        <mxCell id="0HpRwzNJ2paTtuiWjX7O-98" style="edgeStyle=orthogonalEdgeStyle;rounded=0;orthogonalLoop=1;jettySize=auto;html=1;" edge="1" parent="1" source="0HpRwzNJ2paTtuiWjX7O-95">
          <mxGeometry relative="1" as="geometry">
            <mxPoint x="330" y="969" as="targetPoint" />
            <Array as="points">
              <mxPoint x="180" y="910" />
              <mxPoint x="330" y="910" />
              <mxPoint x="330" y="970" />
            </Array>
          </mxGeometry>
        </mxCell>
        <mxCell id="0HpRwzNJ2paTtuiWjX7O-95" value="&lt;span style=&quot;background-color: initial;&quot;&gt;channelP_name&lt;/span&gt;&lt;div&gt;&lt;span style=&quot;background-color: initial;&quot;&gt;channelP_&lt;font color=&quot;#0000ff&quot;&gt;page&lt;/font&gt;&lt;/span&gt;&lt;/div&gt;" style="rounded=1;whiteSpace=wrap;html=1;align=center;" vertex="1" parent="1">
          <mxGeometry x="120" y="830" width="120" height="60" as="geometry" />
        </mxCell>
        <mxCell id="0HpRwzNJ2paTtuiWjX7O-99" style="edgeStyle=orthogonalEdgeStyle;rounded=0;orthogonalLoop=1;jettySize=auto;html=1;entryX=0.5;entryY=0;entryDx=0;entryDy=0;" edge="1" parent="1" source="0HpRwzNJ2paTtuiWjX7O-96" target="0HpRwzNJ2paTtuiWjX7O-97">
          <mxGeometry relative="1" as="geometry" />
        </mxCell>
        <mxCell id="0HpRwzNJ2paTtuiWjX7O-96" value="&lt;font color=&quot;#0000ff&quot;&gt;page&lt;/font&gt;_name&lt;div&gt;page_&lt;font color=&quot;#ff3399&quot;&gt;section&lt;/font&gt;&lt;/div&gt;" style="rounded=1;whiteSpace=wrap;html=1;" vertex="1" parent="1">
          <mxGeometry x="305" y="970" width="120" height="60" as="geometry" />
        </mxCell>
        <mxCell id="0HpRwzNJ2paTtuiWjX7O-97" value="&lt;font color=&quot;#ff3399&quot;&gt;section&lt;/font&gt;_name&lt;div&gt;section_item&lt;/div&gt;" style="rounded=1;whiteSpace=wrap;html=1;" vertex="1" parent="1">
          <mxGeometry x="160" y="1010" width="120" height="60" as="geometry" />
        </mxCell>
        <mxCell id="0HpRwzNJ2paTtuiWjX7O-101" style="edgeStyle=orthogonalEdgeStyle;rounded=0;orthogonalLoop=1;jettySize=auto;html=1;exitX=0;exitY=0.5;exitDx=0;exitDy=0;entryX=0.5;entryY=1;entryDx=0;entryDy=0;" edge="1" parent="1" source="0HpRwzNJ2paTtuiWjX7O-97" target="0HpRwzNJ2paTtuiWjX7O-19">
          <mxGeometry relative="1" as="geometry">
            <mxPoint x="427.5" y="836" as="sourcePoint" />
            <mxPoint x="244.5" y="590" as="targetPoint" />
            <Array as="points">
              <mxPoint x="70" y="1040" />
              <mxPoint x="70" y="600" />
              <mxPoint x="420" y="600" />
            </Array>
          </mxGeometry>
        </mxCell>
        <mxCell id="0HpRwzNJ2paTtuiWjX7O-120" value="Edit" style="swimlane;whiteSpace=wrap;html=1;" vertex="1" parent="1">
          <mxGeometry x="570" y="570" width="240" height="340" as="geometry" />
        </mxCell>
        <mxCell id="0HpRwzNJ2paTtuiWjX7O-121" value="section1" style="swimlane;fontStyle=0;childLayout=stackLayout;horizontal=1;startSize=30;horizontalStack=0;resizeParent=1;resizeParentMax=0;resizeLast=0;collapsible=1;marginBottom=0;whiteSpace=wrap;html=1;" vertex="1" parent="0HpRwzNJ2paTtuiWjX7O-120">
          <mxGeometry x="10" y="30" width="100" height="110" as="geometry" />
        </mxCell>
        <mxCell id="0HpRwzNJ2paTtuiWjX7O-122" value="section1.title" style="text;strokeColor=none;fillColor=none;align=left;verticalAlign=middle;spacingLeft=4;spacingRight=4;overflow=hidden;points=[[0,0.5],[1,0.5]];portConstraint=eastwest;rotatable=0;whiteSpace=wrap;html=1;" vertex="1" parent="0HpRwzNJ2paTtuiWjX7O-121">
          <mxGeometry y="30" width="100" height="30" as="geometry" />
        </mxCell>
        <mxCell id="0HpRwzNJ2paTtuiWjX7O-123" value="section1.desc" style="text;strokeColor=none;fillColor=none;align=left;verticalAlign=middle;spacingLeft=4;spacingRight=4;overflow=hidden;points=[[0,0.5],[1,0.5]];portConstraint=eastwest;rotatable=0;whiteSpace=wrap;html=1;" vertex="1" parent="0HpRwzNJ2paTtuiWjX7O-121">
          <mxGeometry y="60" width="100" height="30" as="geometry" />
        </mxCell>
        <mxCell id="0HpRwzNJ2paTtuiWjX7O-124" value="section1.img" style="text;strokeColor=none;fillColor=none;align=left;verticalAlign=middle;spacingLeft=4;spacingRight=4;overflow=hidden;points=[[0,0.5],[1,0.5]];portConstraint=eastwest;rotatable=0;whiteSpace=wrap;html=1;" vertex="1" parent="0HpRwzNJ2paTtuiWjX7O-121">
          <mxGeometry y="90" width="100" height="20" as="geometry" />
        </mxCell>
        <mxCell id="0HpRwzNJ2paTtuiWjX7O-125" value="section2" style="swimlane;fontStyle=0;childLayout=stackLayout;horizontal=1;startSize=30;horizontalStack=0;resizeParent=1;resizeParentMax=0;resizeLast=0;collapsible=1;marginBottom=0;whiteSpace=wrap;html=1;" vertex="1" parent="0HpRwzNJ2paTtuiWjX7O-120">
          <mxGeometry x="130" y="30" width="100" height="110" as="geometry" />
        </mxCell>
        <mxCell id="0HpRwzNJ2paTtuiWjX7O-126" value="section2.title" style="text;strokeColor=none;fillColor=none;align=left;verticalAlign=middle;spacingLeft=4;spacingRight=4;overflow=hidden;points=[[0,0.5],[1,0.5]];portConstraint=eastwest;rotatable=0;whiteSpace=wrap;html=1;" vertex="1" parent="0HpRwzNJ2paTtuiWjX7O-125">
          <mxGeometry y="30" width="100" height="30" as="geometry" />
        </mxCell>
        <mxCell id="0HpRwzNJ2paTtuiWjX7O-127" value="section2.img" style="text;strokeColor=none;fillColor=none;align=left;verticalAlign=middle;spacingLeft=4;spacingRight=4;overflow=hidden;points=[[0,0.5],[1,0.5]];portConstraint=eastwest;rotatable=0;whiteSpace=wrap;html=1;" vertex="1" parent="0HpRwzNJ2paTtuiWjX7O-125">
          <mxGeometry y="60" width="100" height="20" as="geometry" />
        </mxCell>
        <mxCell id="0HpRwzNJ2paTtuiWjX7O-128" value="section2.desc" style="text;strokeColor=none;fillColor=none;align=left;verticalAlign=middle;spacingLeft=4;spacingRight=4;overflow=hidden;points=[[0,0.5],[1,0.5]];portConstraint=eastwest;rotatable=0;whiteSpace=wrap;html=1;" vertex="1" parent="0HpRwzNJ2paTtuiWjX7O-125">
          <mxGeometry y="80" width="100" height="30" as="geometry" />
        </mxCell>
        <mxCell id="0HpRwzNJ2paTtuiWjX7O-129" value="section3" style="swimlane;fontStyle=0;childLayout=stackLayout;horizontal=1;startSize=30;horizontalStack=0;resizeParent=1;resizeParentMax=0;resizeLast=0;collapsible=1;marginBottom=0;whiteSpace=wrap;html=1;" vertex="1" parent="0HpRwzNJ2paTtuiWjX7O-120">
          <mxGeometry x="10" y="150" width="100" height="110" as="geometry" />
        </mxCell>
        <mxCell id="0HpRwzNJ2paTtuiWjX7O-130" value="Item 1" style="text;strokeColor=none;fillColor=none;align=left;verticalAlign=middle;spacingLeft=4;spacingRight=4;overflow=hidden;points=[[0,0.5],[1,0.5]];portConstraint=eastwest;rotatable=0;whiteSpace=wrap;html=1;" vertex="1" parent="0HpRwzNJ2paTtuiWjX7O-129">
          <mxGeometry y="30" width="100" height="30" as="geometry" />
        </mxCell>
        <mxCell id="0HpRwzNJ2paTtuiWjX7O-131" value="Item 2" style="text;strokeColor=none;fillColor=none;align=left;verticalAlign=middle;spacingLeft=4;spacingRight=4;overflow=hidden;points=[[0,0.5],[1,0.5]];portConstraint=eastwest;rotatable=0;whiteSpace=wrap;html=1;" vertex="1" parent="0HpRwzNJ2paTtuiWjX7O-129">
          <mxGeometry y="60" width="100" height="30" as="geometry" />
        </mxCell>
        <mxCell id="0HpRwzNJ2paTtuiWjX7O-132" value="Item 3" style="text;strokeColor=none;fillColor=none;align=left;verticalAlign=middle;spacingLeft=4;spacingRight=4;overflow=hidden;points=[[0,0.5],[1,0.5]];portConstraint=eastwest;rotatable=0;whiteSpace=wrap;html=1;" vertex="1" parent="0HpRwzNJ2paTtuiWjX7O-129">
          <mxGeometry y="90" width="100" height="20" as="geometry" />
        </mxCell>
        <mxCell id="0HpRwzNJ2paTtuiWjX7O-133" value="section4" style="swimlane;fontStyle=0;childLayout=stackLayout;horizontal=1;startSize=30;horizontalStack=0;resizeParent=1;resizeParentMax=0;resizeLast=0;collapsible=1;marginBottom=0;whiteSpace=wrap;html=1;" vertex="1" parent="0HpRwzNJ2paTtuiWjX7O-120">
          <mxGeometry x="130" y="150" width="100" height="110" as="geometry" />
        </mxCell>
        <mxCell id="0HpRwzNJ2paTtuiWjX7O-134" value="Item 1" style="text;strokeColor=none;fillColor=none;align=left;verticalAlign=middle;spacingLeft=4;spacingRight=4;overflow=hidden;points=[[0,0.5],[1,0.5]];portConstraint=eastwest;rotatable=0;whiteSpace=wrap;html=1;" vertex="1" parent="0HpRwzNJ2paTtuiWjX7O-133">
          <mxGeometry y="30" width="100" height="30" as="geometry" />
        </mxCell>
        <mxCell id="0HpRwzNJ2paTtuiWjX7O-135" value="Item 2" style="text;strokeColor=none;fillColor=none;align=left;verticalAlign=middle;spacingLeft=4;spacingRight=4;overflow=hidden;points=[[0,0.5],[1,0.5]];portConstraint=eastwest;rotatable=0;whiteSpace=wrap;html=1;" vertex="1" parent="0HpRwzNJ2paTtuiWjX7O-133">
          <mxGeometry y="60" width="100" height="30" as="geometry" />
        </mxCell>
        <mxCell id="0HpRwzNJ2paTtuiWjX7O-136" value="Item 3" style="text;strokeColor=none;fillColor=none;align=left;verticalAlign=middle;spacingLeft=4;spacingRight=4;overflow=hidden;points=[[0,0.5],[1,0.5]];portConstraint=eastwest;rotatable=0;whiteSpace=wrap;html=1;" vertex="1" parent="0HpRwzNJ2paTtuiWjX7O-133">
          <mxGeometry y="90" width="100" height="20" as="geometry" />
        </mxCell>
        <mxCell id="0HpRwzNJ2paTtuiWjX7O-138" style="edgeStyle=orthogonalEdgeStyle;rounded=0;orthogonalLoop=1;jettySize=auto;html=1;" edge="1" parent="1" source="0HpRwzNJ2paTtuiWjX7O-120" target="0HpRwzNJ2paTtuiWjX7O-2">
          <mxGeometry relative="1" as="geometry" />
        </mxCell>
        <mxCell id="0HpRwzNJ2paTtuiWjX7O-144" style="edgeStyle=orthogonalEdgeStyle;rounded=0;orthogonalLoop=1;jettySize=auto;html=1;entryX=1;entryY=0.5;entryDx=0;entryDy=0;" edge="1" parent="1" source="0HpRwzNJ2paTtuiWjX7O-139" target="0HpRwzNJ2paTtuiWjX7O-19">
          <mxGeometry relative="1" as="geometry">
            <Array as="points">
              <mxPoint x="520" y="850" />
              <mxPoint x="520" y="490" />
            </Array>
          </mxGeometry>
        </mxCell>
        <mxCell id="0HpRwzNJ2paTtuiWjX7O-139" value="cmsdata" style="rounded=1;whiteSpace=wrap;html=1;" vertex="1" parent="1">
          <mxGeometry x="350" y="820" width="120" height="60" as="geometry" />
        </mxCell>
        <mxCell id="0HpRwzNJ2paTtuiWjX7O-143" style="edgeStyle=orthogonalEdgeStyle;rounded=0;orthogonalLoop=1;jettySize=auto;html=1;entryX=0.5;entryY=1;entryDx=0;entryDy=0;" edge="1" parent="1" source="0HpRwzNJ2paTtuiWjX7O-96" target="0HpRwzNJ2paTtuiWjX7O-139">
          <mxGeometry relative="1" as="geometry" />
        </mxCell>
      </root>
    </mxGraphModel>
  </diagram>
</mxfile>
